<svg width="101" height="100" viewBox="0 0 101 100" fill="none" xmlns="http://www.w3.org/2000/svg">
<g clip-path="url(#clip0_1_141)">
<path d="M79.2784 37.5H37.6117C33.0093 37.5 29.2784 41.231 29.2784 45.8333V70.8333C29.2784 75.4357 33.0093 79.1667 37.6117 79.1667H79.2784C83.8807 79.1667 87.6117 75.4357 87.6117 70.8333V45.8333C87.6117 41.231 83.8807 37.5 79.2784 37.5Z" stroke="#FAF651" stroke-width="5" stroke-linecap="round" stroke-linejoin="round"/>
<path d="M58.445 66.6667C63.0474 66.6667 66.7784 62.9357 66.7784 58.3333C66.7784 53.731 63.0474 50 58.445 50C53.8427 50 50.1117 53.731 50.1117 58.3333C50.1117 62.9357 53.8427 66.6667 58.445 66.6667Z" stroke="#FAF651" stroke-width="5" stroke-linecap="round" stroke-linejoin="round"/>
<path d="M70.945 37.5V29.1667C70.945 26.9565 70.0671 24.8369 68.5043 23.2741C66.9415 21.7113 64.8218 20.8333 62.6117 20.8333H20.945C18.7349 20.8333 16.6153 21.7113 15.0525 23.2741C13.4897 24.8369 12.6117 26.9565 12.6117 29.1667V54.1667C12.6117 56.3768 13.4897 58.4964 15.0525 60.0592C16.6153 61.622 18.7349 62.5 20.945 62.5H29.2784" stroke="#FAF651" stroke-width="5" stroke-linecap="round" stroke-linejoin="round"/>
</g>
<defs>
<clipPath id="clip0_1_141">
<rect width="100" height="100" fill="white" transform="translate(0.111694)"/>
</clipPath>
</defs>
</svg>
