<svg width="57" height="56" viewBox="0 0 57 56" fill="none" xmlns="http://www.w3.org/2000/svg">
<g clip-path="url(#clip0_570_284)">
<path d="M21.4349 30.3333C22.7236 30.3333 23.7682 29.2886 23.7682 28C23.7682 26.7113 22.7236 25.6666 21.4349 25.6666C20.1462 25.6666 19.1016 26.7113 19.1016 28C19.1016 29.2886 20.1462 30.3333 21.4349 30.3333Z" stroke="#242424" stroke-width="4" stroke-linecap="round" stroke-linejoin="round"/>
<path d="M35.4349 30.3333C36.7236 30.3333 37.7682 29.2886 37.7682 28C37.7682 26.7113 36.7236 25.6666 35.4349 25.6666C34.1462 25.6666 33.1016 26.7113 33.1016 28C33.1016 29.2886 34.1462 30.3333 35.4349 30.3333Z" stroke="#242424" stroke-width="4" stroke-linecap="round" stroke-linejoin="round"/>
<path d="M17.9346 17.5C26.1012 15.1667 30.7679 15.1667 38.9346 17.5" stroke="#242424" stroke-width="4" stroke-linecap="round" stroke-linejoin="round"/>
<path d="M16.7676 38.5C24.9342 40.8333 31.9342 40.8333 40.1009 38.5" stroke="#242424" stroke-width="4" stroke-linecap="round" stroke-linejoin="round"/>
<path d="M36.6016 39.6667C36.6016 42 40.1016 46.6667 41.2682 46.6667C44.7682 46.6667 47.8786 42.777 49.4349 39.6667C50.9912 35.777 50.6016 26.0564 45.9349 12.8334C42.5352 10.465 38.9349 9.70671 35.4349 9.33337L33.1016 15.1667" stroke="#242424" stroke-width="4" stroke-linecap="round" stroke-linejoin="round"/>
<path d="M20.2682 39.6667C20.2682 42 17.1042 46.6667 15.9935 46.6667C12.6592 46.6667 9.69816 42.777 8.2165 39.6667C6.73483 35.777 7.10583 26.0564 11.5485 12.8334C14.7872 10.465 18.0398 9.70671 21.4348 9.33337L23.7682 15.1667" stroke="#242424" stroke-width="4" stroke-linecap="round" stroke-linejoin="round"/>
</g>
<defs>
<clipPath id="clip0_570_284">
<rect width="56" height="56" fill="white" transform="translate(0.43457)"/>
</clipPath>
</defs>
</svg>
