<svg width="94" height="121" viewBox="0 0 94 121" fill="none" xmlns="http://www.w3.org/2000/svg">
<path d="M29.3932 36.631C27.7506 36.5659 25.1964 34.3077 32.3331 28.3326C57.7194 7.07841 38.5525 23.1697 61.0787 4.25817C64.4061 1.46469 73.0951 1.45778 76.4166 4.25817C82.0134 8.97676 86.0253 13.9656 91.0819 20.4276C92.4479 22.1732 92.2092 25.2846 90.9022 27.075C89.4059 29.1248 86.2149 29.1476 83.7159 29.5902C79.4697 30.3422 74.8154 28.2487 70.7803 29.7699C67.2422 31.1037 63.5105 36.758 63.5105 36.758C63.5105 36.758 50.1518 37.4535 29.3932 36.631V36.631Z" stroke="url(#paint0_linear_570_185)" stroke-width="4"/>
<path d="M64.2223 13.7802C65.5618 13.7802 66.6477 12.6943 66.6477 11.3548C66.6477 10.0152 65.5618 8.92935 64.2223 8.92935C62.8828 8.92935 61.7969 10.0152 61.7969 11.3548C61.7969 12.6943 62.8828 13.7802 64.2223 13.7802Z" stroke="url(#paint1_linear_570_185)" stroke-width="4"/>
<path d="M72.9293 14.4344C74.2688 14.4344 75.3547 13.3485 75.3547 12.009C75.3547 10.6695 74.2688 9.58359 72.9293 9.58359C71.5898 9.58359 70.5039 10.6695 70.5039 12.009C70.5039 13.3485 71.5898 14.4344 72.9293 14.4344Z" stroke="url(#paint2_linear_570_185)" stroke-width="4"/>
<path d="M72.3893 22.974C73.7288 22.974 74.8147 21.8881 74.8147 20.5486C74.8147 19.2091 73.7288 18.1232 72.3893 18.1232C71.0498 18.1232 69.9639 19.2091 69.9639 20.5486C69.9639 21.8881 71.0498 22.974 72.3893 22.974Z" stroke="url(#paint3_linear_570_185)" stroke-width="4"/>
<path d="M63.7399 22.2577C65.0794 22.2577 66.1653 21.1718 66.1653 19.8323C66.1653 18.4928 65.0794 17.4069 63.7399 17.4069C62.4004 17.4069 61.3145 18.4928 61.3145 19.8323C61.3145 21.1718 62.4004 22.2577 63.7399 22.2577Z" stroke="url(#paint4_linear_570_185)" stroke-width="4"/>
<path d="M42.7722 36.9114L38.6849 33.2302C38.6849 33.2302 36.5825 31.731 38.2807 29.9514C39.6554 28.5107 41.6044 30.1311 41.6044 30.1311L44.7597 32.4217L48.162 29.6819C48.162 29.6819 49.5129 28.4692 51.0365 29.9514C52.4779 31.3536 51.0365 33.32 51.0365 33.32L47.1739 36.8216L42.7722 36.9114Z" stroke="url(#paint5_linear_570_185)" stroke-width="4"/>
<path d="M25.1465 3.71917C28.2009 7.97141 31.2551 12.2234 33.8302 13.7503C36.4053 15.2772 38.5013 14.0795 39.1301 11.8938C39.7589 9.70807 38.9205 6.53414 39.4295 4.43793C39.9386 2.34172 41.7951 1.32366 44.1307 2.49165C46.4664 3.65963 49.281 7.01321 52.0955 10.3666" stroke="url(#paint6_linear_570_185)" stroke-width="4"/>
<path d="M18.1298 42.1069C18.1298 42.1069 17.9938 66.4257 18.1298 75.9372C18.2658 85.4487 29.0481 96.2739 36.7222 97.1902C44.3964 98.1065 44.1242 98.1739 52.3504 97.1902C60.5766 96.2065 71.9092 84.1784 72.0395 73.977C72.1698 63.7755 72.0395 42.1069 72.0395 42.1069H18.1298Z" stroke="url(#paint7_linear_570_185)" stroke-width="4"/>
<path d="M16.5844 36.8665H73.3608C73.3608 36.8665 76.3616 38.3889 76.1752 39.4324C75.9052 40.9445 73.3608 41.9786 73.3608 41.9786H16.5844C16.5844 41.9786 14.4264 41.1382 13.951 39.4324C13.6242 38.26 16.5844 36.8665 16.5844 36.8665Z" stroke="url(#paint8_linear_570_185)" stroke-width="4"/>
<path d="M17.6964 49.2885H3.00135C0.44711 49.2885 3.24193 77.6009 6.20877 82.9125C10.3143 90.2628 26.4969 91.6067 26.4969 91.6067L19.3702 82.8784C19.3702 82.8784 11.3407 81.1869 10.3143 77.3958C9.23443 73.4069 6.59368 55.5418 9.03133 55.5418H17.6014L17.6964 49.2885Z" stroke="url(#paint9_linear_570_185)" stroke-width="4"/>
<path d="M36.7228 97.1901C44.3969 97.9581 45.0839 97.8631 52.351 97.1901L53.0767 107.173H35.9424L36.7228 97.1901Z" stroke="url(#paint10_linear_570_185)" stroke-width="4"/>
<path d="M29.9413 107.166H57.4079C64.8698 107.166 65.0954 118.244 65.0954 118.244H23.7725C23.7725 118.244 24.7732 107.166 29.9413 107.166V107.166Z" stroke="url(#paint11_linear_570_185)" stroke-width="4"/>
<path d="M72.4567 49.2885H87.1518C89.706 49.2885 86.9112 77.6009 83.9443 82.9125C79.8388 90.2628 63.6562 91.6067 63.6562 91.6067L70.783 82.8784C70.783 82.8784 78.8124 81.1869 79.8388 77.3958C80.9187 73.4069 83.5594 55.5418 81.1218 55.5418H72.5517L72.4567 49.2885Z" stroke="url(#paint12_linear_570_185)" stroke-width="4"/>
<path d="M35.8005 72.4093C35.7125 72.9305 35.6062 73.6594 35.4816 74.5958C35.3569 75.5234 35.2726 76.2434 35.2286 76.7558C33.6595 77.0297 32.2591 77.1666 31.0273 77.1666C29.8395 77.1666 28.7323 76.9899 27.7058 76.6365C26.6866 76.2743 25.7481 75.6868 24.8903 74.8741C24.0397 74.0525 23.4312 73.0895 23.0646 71.9852C22.698 70.881 22.5146 69.6441 22.5146 68.2748C22.5146 66.6758 22.7603 65.2402 23.2515 63.9681C23.7501 62.6871 24.4613 61.6226 25.3852 60.7745C26.3164 59.9175 27.3355 59.308 28.4427 58.9458C29.5499 58.5747 30.6937 58.3892 31.8741 58.3892C32.9593 58.3892 34.3011 58.557 35.8995 58.8927L35.9214 60.0059C35.936 60.4918 35.958 61.0262 35.9874 61.6093L36.0644 63.12C35.2065 62.8726 34.51 62.7048 33.9747 62.6164C33.4468 62.5281 32.9556 62.4839 32.501 62.4839C31.5111 62.4839 30.6203 62.7224 29.8284 63.1995C29.0365 63.6765 28.4133 64.37 27.9587 65.28C27.5041 66.1899 27.2768 67.197 27.2768 68.3013C27.2768 69.3084 27.4674 70.1742 27.8487 70.8986C28.23 71.6142 28.7432 72.1708 29.3885 72.5683C30.041 72.957 30.8439 73.1514 31.7971 73.1514C32.3177 73.1514 32.8822 73.1028 33.4908 73.0056C34.1067 72.8996 34.8766 72.7008 35.8004 72.4093H35.8005Z" fill="url(#paint13_linear_570_185)"/>
<path d="M38.5614 58.7337C39.7052 58.7514 40.5118 58.7602 40.981 58.7602C41.5676 58.7602 42.3484 58.7514 43.3236 58.7337L42.9937 64.3656C42.9277 65.4257 42.8763 66.4196 42.8397 67.3472C42.8104 68.2748 42.7957 68.9153 42.7957 69.2687C42.7957 69.9401 42.836 70.501 42.9167 70.9516C42.9974 71.4022 43.144 71.7864 43.3566 72.1045C43.5693 72.4137 43.8625 72.6478 44.2365 72.8068C44.6177 72.9658 45.0137 73.0453 45.4243 73.0453C45.7762 73.0453 46.1062 72.9967 46.4141 72.8996C46.6561 72.8201 46.8724 72.7096 47.0631 72.5683C47.2317 72.4358 47.3783 72.2812 47.503 72.1045C47.6569 71.8925 47.7926 71.6274 47.9099 71.3094C48.0272 71.009 48.1152 70.6203 48.1739 70.1433C48.2398 69.6574 48.3278 68.5531 48.4378 66.8304C48.5331 65.3639 48.6065 64.0211 48.6578 62.8019C48.7018 61.6181 48.7421 60.262 48.7788 58.7337C49.8859 58.7514 50.7584 58.7602 51.3963 58.7602L53.629 58.7337L53.09 68.1423C53.0827 68.319 53.0791 68.4647 53.0791 68.5796C53.0498 70.4171 52.9545 71.7158 52.7932 72.4755C52.6392 73.2265 52.3789 73.8802 52.0123 74.4367C51.6457 74.9933 51.1104 75.4969 50.4065 75.9474C49.7027 76.3891 48.9035 76.7028 48.0089 76.8883C47.1144 77.0738 46.2089 77.1666 45.2924 77.1666C44.4712 77.1666 43.6793 77.0959 42.9167 76.9545C42.2128 76.8132 41.5786 76.61 41.0141 76.345C40.4495 76.0711 39.9582 75.7531 39.5403 75.3909C39.159 75.0552 38.8657 74.715 38.6604 74.3705C38.4551 74.0171 38.2938 73.5975 38.1765 73.1116C38.0445 72.5639 37.9785 71.9764 37.9785 71.3491C37.9785 71.1371 37.9858 70.8191 38.0004 70.395C38.015 69.9622 38.048 69.3438 38.0994 68.5398L38.2424 66.4196C38.2791 65.863 38.3194 65.0458 38.3634 63.9681L38.5614 58.7337Z" fill="url(#paint14_linear_570_185)"/>
<path d="M55.4541 76.8221L55.6741 73.4297L55.96 66.8039L56.081 62.1129C56.0883 61.6093 56.092 61.1058 56.092 60.6022C56.092 60.2223 56.0883 59.5995 56.081 58.7338C57.0488 58.7603 57.8261 58.7735 58.4126 58.7735C58.9772 58.7735 59.7508 58.7558 60.7333 58.7205C61.7158 58.6763 62.548 58.6543 63.2298 58.6543C64.2124 58.6543 64.9382 58.7293 65.4075 58.8795C65.8841 59.0297 66.313 59.2682 66.6943 59.5951C67.0756 59.9131 67.3909 60.2886 67.6402 60.7215C67.8895 61.1544 68.0764 61.6491 68.2011 62.2057C68.3257 62.7534 68.388 63.3144 68.388 63.8886C68.388 65.0724 68.1498 66.1546 67.6732 67.1352C67.1966 68.1158 66.5257 68.8491 65.6605 69.335C64.7953 69.8209 63.8238 70.0638 62.7459 70.0638C62.35 70.0638 61.8917 70.0108 61.3712 69.9048C61.3125 69.4984 61.2025 68.8933 61.0412 68.0893C60.8799 67.2854 60.7479 66.6891 60.6453 66.3004C60.9679 66.3799 61.3052 66.4196 61.6571 66.4196C62.3977 66.4196 62.9476 66.2076 63.3069 65.7836C63.6735 65.3507 63.8568 64.825 63.8568 64.2066C63.8568 63.9063 63.8164 63.6412 63.7358 63.4115C63.6551 63.173 63.5268 62.9787 63.3509 62.8285C63.1749 62.6783 62.9806 62.5811 62.7679 62.5369C62.5553 62.4928 62.3134 62.4707 62.0421 62.4707C61.7781 62.4707 61.5032 62.4795 61.2172 62.4972L60.2933 62.5767C60.198 64.2817 60.1247 66.1767 60.0734 68.2616C59.9781 72.0604 59.9304 74.3396 59.9304 75.0994V76.8221L57.7417 76.7956C57.4338 76.7956 56.6712 76.8044 55.4541 76.8221Z" fill="url(#paint15_linear_570_185)"/>
<defs>
<linearGradient id="paint0_linear_570_185" x1="24.1212" y1="19.5189" x2="93.2635" y2="19.5189" gradientUnits="userSpaceOnUse">
<stop stop-color="white"/>
<stop offset="1" stop-color="#FAF651"/>
</linearGradient>
<linearGradient id="paint1_linear_570_185" x1="24.1206" y1="19.519" x2="93.2632" y2="19.519" gradientUnits="userSpaceOnUse">
<stop stop-color="white"/>
<stop offset="1" stop-color="#FAF651"/>
</linearGradient>
<linearGradient id="paint2_linear_570_185" x1="24.1208" y1="19.519" x2="93.2634" y2="19.519" gradientUnits="userSpaceOnUse">
<stop stop-color="white"/>
<stop offset="1" stop-color="#FAF651"/>
</linearGradient>
<linearGradient id="paint3_linear_570_185" x1="24.1206" y1="19.519" x2="93.2631" y2="19.519" gradientUnits="userSpaceOnUse">
<stop stop-color="white"/>
<stop offset="1" stop-color="#FAF651"/>
</linearGradient>
<linearGradient id="paint4_linear_570_185" x1="24.1211" y1="19.519" x2="93.2632" y2="19.519" gradientUnits="userSpaceOnUse">
<stop stop-color="white"/>
<stop offset="1" stop-color="#FAF651"/>
</linearGradient>
<linearGradient id="paint5_linear_570_185" x1="24.1214" y1="19.519" x2="93.2637" y2="19.519" gradientUnits="userSpaceOnUse">
<stop stop-color="white"/>
<stop offset="1" stop-color="#FAF651"/>
</linearGradient>
<linearGradient id="paint6_linear_570_185" x1="24.121" y1="19.5189" x2="93.2633" y2="19.5189" gradientUnits="userSpaceOnUse">
<stop stop-color="white"/>
<stop offset="1" stop-color="#FAF651"/>
</linearGradient>
<linearGradient id="paint7_linear_570_185" x1="0.482845" y1="77.5553" x2="89.4159" y2="77.5553" gradientUnits="userSpaceOnUse">
<stop stop-color="white"/>
<stop offset="1" stop-color="#FAF651"/>
</linearGradient>
<linearGradient id="paint8_linear_570_185" x1="0.4835" y1="77.5553" x2="89.4165" y2="77.5553" gradientUnits="userSpaceOnUse">
<stop stop-color="white"/>
<stop offset="1" stop-color="#FAF651"/>
</linearGradient>
<linearGradient id="paint9_linear_570_185" x1="0.73725" y1="77.5553" x2="89.6703" y2="77.5553" gradientUnits="userSpaceOnUse">
<stop stop-color="white"/>
<stop offset="1" stop-color="#FAF651"/>
</linearGradient>
<linearGradient id="paint10_linear_570_185" x1="0.483383" y1="77.5553" x2="89.4165" y2="77.5553" gradientUnits="userSpaceOnUse">
<stop stop-color="white"/>
<stop offset="1" stop-color="#FAF651"/>
</linearGradient>
<linearGradient id="paint11_linear_570_185" x1="0.483634" y1="77.5553" x2="89.4167" y2="77.5553" gradientUnits="userSpaceOnUse">
<stop stop-color="white"/>
<stop offset="1" stop-color="#FAF651"/>
</linearGradient>
<linearGradient id="paint12_linear_570_185" x1="0.482843" y1="77.5553" x2="89.4159" y2="77.5553" gradientUnits="userSpaceOnUse">
<stop stop-color="white"/>
<stop offset="1" stop-color="#FAF651"/>
</linearGradient>
<linearGradient id="paint13_linear_570_185" x1="22.5147" y1="67.7779" x2="68.3883" y2="67.7779" gradientUnits="userSpaceOnUse">
<stop stop-color="white"/>
<stop offset="1" stop-color="#FAF651" stop-opacity="0.81677"/>
</linearGradient>
<linearGradient id="paint14_linear_570_185" x1="22.5149" y1="67.7779" x2="68.3887" y2="67.7779" gradientUnits="userSpaceOnUse">
<stop stop-color="white"/>
<stop offset="1" stop-color="#FAF651"/>
</linearGradient>
<linearGradient id="paint15_linear_570_185" x1="22.5144" y1="67.7779" x2="68.3881" y2="67.7779" gradientUnits="userSpaceOnUse">
<stop stop-color="white"/>
<stop offset="1" stop-color="#FAF651" stop-opacity="0.96"/>
</linearGradient>
</defs>
</svg>
