<svg width="108" height="108" viewBox="0 0 108 108" fill="none" xmlns="http://www.w3.org/2000/svg">
<g filter="url(#filter0_d_1_83)">
<circle cx="54" cy="50" r="50" fill="#FAF651"/>
</g>
<circle cx="54" cy="50" r="43.5" stroke="#242424" stroke-width="3"/>
<g clip-path="url(#clip0_1_83)">
<path d="M34 72.5V40C34 38.0109 34.7902 36.1032 36.1967 34.6967C37.6032 33.2902 39.5109 32.5 41.5 32.5H66.5C68.4891 32.5 70.3968 33.2902 71.8033 34.6967C73.2098 36.1032 74 38.0109 74 40V55C74 56.9891 73.2098 58.8968 71.8033 60.3033C70.3968 61.7098 68.4891 62.5 66.5 62.5H44L34 72.5Z" fill="#242424"/>
</g>
<defs>
<filter id="filter0_d_1_83" x="0" y="0" width="108" height="108" filterUnits="userSpaceOnUse" color-interpolation-filters="sRGB">
<feFlood flood-opacity="0" result="BackgroundImageFix"/>
<feColorMatrix in="SourceAlpha" type="matrix" values="0 0 0 0 0 0 0 0 0 0 0 0 0 0 0 0 0 0 127 0" result="hardAlpha"/>
<feOffset dy="4"/>
<feGaussianBlur stdDeviation="2"/>
<feComposite in2="hardAlpha" operator="out"/>
<feColorMatrix type="matrix" values="0 0 0 0 0 0 0 0 0 0 0 0 0 0 0 0 0 0 0.5 0"/>
<feBlend mode="normal" in2="BackgroundImageFix" result="effect1_dropShadow_1_83"/>
<feBlend mode="normal" in="SourceGraphic" in2="effect1_dropShadow_1_83" result="shape"/>
</filter>
<clipPath id="clip0_1_83">
<rect x="24" y="20" width="60" height="60" rx="30" fill="white"/>
</clipPath>
</defs>
</svg>
